Coordinates
version=1
nRows=9
nColumns=36
inDegrees=yes

Units are S.I. units (second, meters, Newtons, ...)
If the header above contains a line with 'inDegrees', this indicates whether rotational values are in degrees (yes) or radians (no).

endheader
time	pelvis_tilt	pelvis_list	pelvis_rotation	pelvis_tx	pelvis_ty	pelvis_tz	hip_flexion_r	hip_adduction_r	hip_rotation_r	knee_angle_r	knee_angle_r_beta	ankle_angle_r	subtalar_angle_r	mtp_angle_r	hip_flexion_l	hip_adduction_l	hip_rotation_l	knee_angle_l	knee_angle_l_beta	ankle_angle_l	subtalar_angle_l	mtp_angle_l	lumbar_extension	lumbar_bending	lumbar_rotation	arm_flex_r	arm_add_r	arm_rot_r	elbow_flex_r	pro_sup_r	arm_flex_l	arm_add_l	arm_rot_l	elbow_flex_l	pro_sup_l
      0.00000000	      3.04762450	     -1.49863123	      0.27435580	     -0.96370097	      1.24604993	     -0.07185486	     -5.38569584	      1.86478649	     -7.21679486	      3.04565312	      0.05315667	      5.14208694	    -16.31249470	     -5.90413703	     -4.73022677	     -3.04380222	     -0.68322806	      6.33722508	      0.11060544	      8.45509995	     -8.49223532	     -5.90413703	    -16.43990964	      2.55559565	     -0.04364095	     13.16678026	     -7.14091027	     24.79473930	     24.20028164	     73.24196148	      7.40249460	     -4.31039070	     19.00803041	     23.23513155	     64.10655574
      0.00416670	      2.41843151	     -1.22918818	      0.33690303	     -0.95837762	      1.25063226	     -0.06976538	     -4.21571902	      2.12418016	     -6.44139886	      4.09629866	      0.07149390	      6.32085459	    -15.68571075	     -5.97930629	     -3.71647569	     -2.28692826	     -0.42455891	      6.45154511	      0.11260070	      8.44142353	     -8.20076748	     -5.97930629	    -15.57123268	      2.23482140	      0.00995921	     12.75119881	     -6.74018832	     22.78898936	     23.53678556	     73.48581946	      7.59870927	     -4.19237638	     18.28604618	     22.28073168	     64.23829317
      0.00833330	      2.51503217	     -0.44908767	     -0.04835162	     -0.95932960	      1.25005592	     -0.06746890	     -4.65524633	      1.51283721	     -6.47684247	      3.31585475	      0.05787258	      6.10138784	    -15.41012369	     -6.91633269	     -4.30487543	     -1.56840286	     -1.02289941	      5.70908220	      0.09964228	      8.04260480	     -8.28388869	     -6.91633269	    -15.77392378	      0.79915005	      0.55060585	     12.18231025	     -5.84996434	     19.21123211	     24.18023843	     74.37475256	      8.46032526	     -5.13731444	     20.37941297	     22.28639948	     65.79525476
      0.01250000	      3.96696060	     -0.13408524	     -0.16249900	     -0.96121388	      1.25138528	     -0.06728873	     -6.70376691	      1.18144837	     -6.45796730	      2.40112162	      0.04190748	      6.33684161	    -14.45149674	     -7.02773176	     -6.70228437	     -1.14367444	     -1.08863583	      4.24511209	      0.07409118	      7.31113360	     -8.99954759	     -7.02773176	    -17.83178690	      0.10688971	      0.73675002	     12.35921520	     -5.60694573	     18.60344836	     24.82578183	     72.99259514	      9.24202503	     -5.88125883	     21.19933907	     22.82265987	     65.71954503
      0.01666670	      4.75243277	     -0.00347331	     -0.22049873	     -0.96177532	      1.25433509	     -0.06711840	     -7.86540615	      1.09345111	     -6.53962990	      1.78288030	      0.03111713	      6.41237338	    -13.90585752	     -7.18685916	     -8.02798890	     -0.89926280	     -0.97445064	      3.25217489	      0.05676116	      6.84025376	     -9.45686560	     -7.18685916	    -19.05767177	     -0.18408769	      0.90109095	     12.45831474	     -5.62351988	     18.95356386	     25.43084705	     71.61900561	      9.88184726	     -6.32954944	     22.97679798	     22.96918124	     65.98555030
      0.02083330	      5.24132133	      0.04408153	     -0.40757524	     -0.96239978	      1.25552426	     -0.06784650	     -8.52322225	      1.05103440	     -5.71808618	      1.44469615	      0.02521470	      5.98763976	    -14.69823017	     -7.25125902	     -8.79546471	     -0.73873024	     -1.04100054	      2.73272984	      0.04769513	      6.43949574	     -9.99607956	     -7.25125902	    -19.93037965	     -0.35912518	      1.23166070	     12.66960986	     -5.88768621	     19.88845521	     26.02835534	     71.69222635	     10.51692500	     -6.65364669	     25.09852802	     23.08200104	     66.97520222
      0.02500000	      5.46072636	      0.11946871	     -0.41971765	     -0.96206356	      1.25479201	     -0.06701864	     -8.88595910	      1.00163990	     -5.42040654	      1.19585504	      0.02087161	      5.75836572	    -14.98496645	     -7.37485226	     -9.15042289	     -0.60703850	     -1.04495727	      2.44234539	      0.04262697	      6.12967726	    -10.45548759	     -7.37485226	    -20.39565447	     -0.48714511	      1.44107588	     12.77228315	     -6.08418349	     20.15922579	     26.41042049	     73.86797813	     11.02177921	     -6.77078949	     26.29138953	     23.00060020	     70.56283657
      0.02916670	      5.62207622	      0.18604194	     -0.46641870	     -0.96307687	      1.25457838	     -0.06707075	     -9.12643677	      0.94530558	     -5.24999634	      1.06014435	      0.01850301	      5.70488270	    -15.14526774	     -7.41491719	     -9.38496195	     -0.48830625	     -0.98630733	      2.24993787	      0.03926882	      5.87836567	    -10.83391186	     -7.41491719	    -20.84059613	     -0.55958788	      1.53051257	     13.02908088	     -6.35390924	     21.25394638	     26.82918379	     72.16740227	     11.31292896	     -6.84756039	     27.07383229	     23.24874528	     69.41547007
      0.03333330	      5.61445165	      0.19377728	     -0.48293938	     -0.96450913	      1.25265194	     -0.06627729	     -9.12386173	      0.98232125	     -4.83921968	      0.95257159	      0.01662551	      5.35724576	    -15.88039529	     -7.44976176	     -9.35344392	     -0.48510195	     -0.81713315	      2.18084181	      0.03806287	      5.62477137	    -11.28027919	     -7.44976176	    -21.02625643	     -0.58730862	      1.61205988	     13.35203332	     -6.67052024	     22.97825508	     27.03550495	     71.06443152	     11.70827777	     -7.05960581	     28.63221177	     23.22146207	     68.92070851
